<svg
  class="tw"
  xmlns="http://www.w3.org/2000/svg"
  version="1.1"
  viewBox="0 0 15 15"
>
  <style>
    .cls-1 {
      fill: #fff;
    }
    .cls-2 {
      fill: #d43b2a;
    }
    .cls-3 {
      fill: #0b2964;
    }
  </style>
  <g>
    <polygon
      class="cls-1"
      points="7.95 5.76 14.8 5.76 14.8 5.76 7.95 5.76 7.95 5.76"
    />
    <path class="cls-2" d="M8,8.08h7c0-.19,0-.39,0-.58s0-.39,0-.58H8V8.08Z" />
    <path class="cls-1" d="M8,6.92h7a7.56,7.56,0,0,0-.18-1.16H8Z" />
    <path class="cls-2" d="M8,4.6V5.76H14.8a7.86,7.86,0,0,0-.38-1.16Z" />
    <path class="cls-1" d="M8,4.6h6.47a7,7,0,0,0-.61-1.15H8Z" />
    <path class="cls-2" d="M8,3.45h5.86a7.45,7.45,0,0,0-.92-1.16H8Z" />
    <path class="cls-1" d="M8,2.29h4.94a7.57,7.57,0,0,0-1.43-1.16H8Z" />
    <path class="cls-2" d="M11.46,1.13A7.54,7.54,0,0,0,8,0V1.13Z" />
    <path
      class="cls-2"
      d="M7.5,15a7.44,7.44,0,0,0,4-1.13H3.54A7.44,7.44,0,0,0,7.5,15Z"
    />
    <path
      class="cls-1"
      d="M3.54,13.87h7.92a7.57,7.57,0,0,0,1.43-1.16H2.11A7.57,7.57,0,0,0,3.54,13.87Z"
    />
    <path
      class="cls-2"
      d="M2.11,12.71H12.89a7.45,7.45,0,0,0,.92-1.16H1.19A7.45,7.45,0,0,0,2.11,12.71Z"
    />
    <path
      class="cls-1"
      d="M1.19,11.55H13.81a7,7,0,0,0,.61-1.15H.58A7,7,0,0,0,1.19,11.55Z"
    />
    <path
      class="cls-2"
      d="M.58,10.4H14.42a7.86,7.86,0,0,0,.38-1.16H.2A7.86,7.86,0,0,0,.58,10.4Z"
    />
    <path
      class="cls-1"
      d="M8,8.08H0A7.56,7.56,0,0,0,.2,9.24H14.8A7.56,7.56,0,0,0,15,8.08Z"
    />
    <path
      class="cls-3"
      d="M5.11.39l.08.24h.32l-.25.2.09.32L5.08,1l-.28.19L4.91.83,4.64.63H5L5.05.41A7.61,7.61,0,0,0,2.49,1.92l0,0,0,0a7.67,7.67,0,0,0-1.54,2h.25l.11-.32.11.32h.32l-.26.2.1.32-.27-.19L1,4.4l.11-.32L.9,3.93c-.13.24-.25.5-.36.76H.77l-.26.2.1.32L.4,5.07A8.46,8.46,0,0,0,.09,6.32H.23L.34,6l.1.32H.77l-.26.2.1.32L.34,6.65l-.28.19.11-.32-.1-.07A7.22,7.22,0,0,0,0,7.5c0,.19,0,.38,0,.56H8V5.76H8V0H7.5A7.53,7.53,0,0,0,5.11.39ZM1.56,7.65l-.27-.19L1,7.65l.11-.31L.84,7.13h.34l.11-.31.11.31h.32l-.26.21Zm-.1-1.94.1.32-.27-.19L1,6l.11-.32-.28-.2h.34l.11-.32.11.32h.32Zm1,1.13-.28-.19L2,6.84l.11-.32-.28-.2h.34L2.23,6l.11.32h.33l-.26.2Zm-.1-1.95.1.32L2.23,5,2,5.21l.11-.32-.28-.2h.34l.1-.32.11.32h.33Zm0-1.62.1.32L2.23,3.4,2,3.59l.11-.32-.28-.2h.34l.1-.32.11.32h.33Zm1,4.38-.27-.19-.27.19L3,7.34l-.27-.21h.34l.1-.31.11.31h.33l-.26.21ZM3.36,5.71,3.45,6l-.27-.19L2.91,6,3,5.71l-.27-.2h.34l.1-.32.11.32h.33Zm0-1.63.09.32-.27-.19-.27.19L3,4.08l-.27-.2h.34l.1-.32.11.32h.33Zm0-1.62.09.31-.27-.18-.27.18L3,2.46l-.27-.21h.34l.1-.31.11.31h.33Zm1,4.38-.27-.19-.28.19L4,6.52l-.27-.2H4L4.13,6l.11.32h.32l-.25.2ZM4.31,4.89l.09.32L4.13,5l-.28.19L4,4.89l-.27-.2H4l.1-.32.11.32h.32Zm0-1.62.09.32L4.13,3.4l-.28.19L4,3.27l-.27-.2H4l.1-.32.11.32h.32Zm0-1.63L4.4,2l-.27-.19L3.85,2,4,1.64l-.27-.2H4l.1-.32.11.32h.32Zm1,6-.27-.19-.28.19.11-.31-.27-.21H5l.1-.31.11.31h.32l-.25.21ZM5.26,5.71,5.35,6l-.27-.19L4.8,6l.11-.32-.27-.2H5l.1-.32.11.32h.32Zm0-1.63.09.32-.27-.19L4.8,4.4l.11-.32-.27-.2H5l.1-.32.11.32h.32Zm0-1.62.09.31-.27-.18-.28.18.11-.31-.27-.21H5l.1-.31.11.31h.32Zm1,4.38L6,6.65l-.28.19.11-.32-.27-.2h.34L6,6l.11.32h.32l-.26.2ZM6.2,4.89l.1.32L6,5l-.28.19.11-.32-.27-.2h.34L6,4.37l.11.32h.32Zm0-1.62.1.32L6,3.4l-.28.19.11-.32-.27-.2h.34L6,2.75l.11.32h.32Zm0-1.63L6.3,2,6,1.77,5.75,2l.11-.32-.27-.2h.34L6,1.12l.11.32h.32Zm1,6L7,7.46l-.28.19.11-.31-.28-.21h.35L7,6.82l.11.31h.32l-.26.21Zm-.1-1.94.1.32L7,5.84,6.7,6l.11-.32-.28-.2h.35L7,5.19l.11.32h.32Zm0-1.63.1.32L7,4.21,6.7,4.4l.11-.32-.28-.2h.35L7,3.56l.11.32h.32Zm0-1.62.1.31L7,2.59l-.28.18.11-.31-.28-.21h.35L7,1.94l.11.31h.32Zm0-1.63.1.32L7,1l-.28.19L6.81.83,6.53.63h.35L7,.31l.11.32h.32Z"
    />
    <path class="cls-3" d="M8,8.06H0v0H8Z" />
    <polygon
      class="cls-3"
      points="7.95 8.08 0.02 8.08 0.02 8.08 7.95 8.08 7.95 8.08"
    />
    <path class="cls-1" d="M5.08.31l0,.1.06,0Z" />
    <path
      class="cls-1"
      d="M4.64.63l.27.2-.11.32L5.08,1l.27.19L5.26.83l.25-.2H5.19L5.11.39l-.06,0L5,.63Z"
    />
    <polygon
      class="cls-1"
      points="6.98 0.31 6.88 0.63 6.53 0.63 6.81 0.83 6.7 1.15 6.98 0.96 7.25 1.15 7.15 0.83 7.41 0.63 7.09 0.63 6.98 0.31"
    />
    <polygon
      class="cls-1"
      points="6.03 1.12 5.93 1.44 5.58 1.44 5.86 1.64 5.75 1.96 6.03 1.77 6.3 1.96 6.2 1.64 6.46 1.44 6.14 1.44 6.03 1.12"
    />
    <polygon
      class="cls-1"
      points="4.13 1.12 4.03 1.44 3.69 1.44 3.96 1.64 3.85 1.96 4.13 1.77 4.4 1.96 4.31 1.64 4.57 1.44 4.24 1.44 4.13 1.12"
    />
    <path class="cls-1" d="M2.49,1.92h0l0,0Z" />
    <polygon
      class="cls-1"
      points="3.18 1.94 3.08 2.25 2.74 2.25 3.01 2.46 2.91 2.77 3.18 2.58 3.45 2.77 3.36 2.46 3.62 2.25 3.29 2.25 3.18 1.94"
    />
    <polygon
      class="cls-1"
      points="5.08 1.94 4.98 2.25 4.64 2.25 4.91 2.46 4.8 2.77 5.08 2.58 5.35 2.77 5.25 2.46 5.51 2.25 5.19 2.25 5.08 1.94"
    />
    <polygon
      class="cls-1"
      points="6.98 1.94 6.88 2.25 6.53 2.25 6.81 2.46 6.7 2.77 6.98 2.58 7.25 2.77 7.15 2.46 7.41 2.25 7.09 2.25 6.98 1.94"
    />
    <polygon
      class="cls-1"
      points="6.03 2.75 5.93 3.07 5.58 3.07 5.86 3.27 5.75 3.59 6.03 3.4 6.3 3.59 6.2 3.27 6.46 3.07 6.14 3.07 6.03 2.75"
    />
    <polygon
      class="cls-1"
      points="4.13 2.75 4.03 3.07 3.69 3.07 3.96 3.27 3.85 3.59 4.13 3.4 4.4 3.59 4.31 3.27 4.57 3.07 4.24 3.07 4.13 2.75"
    />
    <polygon
      class="cls-1"
      points="2.23 2.75 2.13 3.07 1.79 3.07 2.06 3.27 1.96 3.59 2.23 3.4 2.5 3.59 2.41 3.27 2.67 3.07 2.34 3.07 2.23 2.75"
    />
    <path
      class="cls-1"
      d="M1,4.4l.28-.19.27.19-.1-.32.26-.2H1.4l-.11-.32-.11.32H.93l0,.05.22.15Z"
    />
    <polygon
      class="cls-1"
      points="3.18 3.56 3.08 3.88 2.74 3.88 3.01 4.08 2.91 4.4 3.18 4.21 3.45 4.4 3.36 4.08 3.62 3.88 3.29 3.88 3.18 3.56"
    />
    <polygon
      class="cls-1"
      points="5.08 3.56 4.98 3.88 4.64 3.88 4.91 4.08 4.8 4.4 5.08 4.21 5.35 4.4 5.25 4.08 5.51 3.88 5.19 3.88 5.08 3.56"
    />
    <polygon
      class="cls-1"
      points="6.98 3.56 6.88 3.88 6.53 3.88 6.81 4.08 6.7 4.4 6.98 4.21 7.25 4.4 7.15 4.08 7.41 3.88 7.09 3.88 6.98 3.56"
    />
    <polygon
      class="cls-1"
      points="6.03 4.38 5.93 4.69 5.58 4.69 5.86 4.89 5.75 5.21 6.03 5.02 6.3 5.21 6.2 4.89 6.46 4.69 6.14 4.69 6.03 4.38"
    />
    <polygon
      class="cls-1"
      points="4.13 4.38 4.03 4.69 3.69 4.69 3.96 4.89 3.85 5.21 4.13 5.02 4.4 5.21 4.31 4.89 4.57 4.69 4.24 4.69 4.13 4.38"
    />
    <polygon
      class="cls-1"
      points="2.23 4.38 2.13 4.69 1.79 4.69 2.06 4.89 1.96 5.21 2.23 5.02 2.5 5.21 2.41 4.89 2.67 4.69 2.34 4.69 2.23 4.38"
    />
    <path
      class="cls-1"
      d="M.51,4.89l.26-.2H.54c-.05.12-.09.25-.14.38l.21.14Z"
    />
    <polygon
      class="cls-1"
      points="1.29 5.19 1.18 5.51 0.84 5.51 1.12 5.71 1.01 6.03 1.29 5.84 1.56 6.03 1.46 5.71 1.72 5.51 1.4 5.51 1.29 5.19"
    />
    <polygon
      class="cls-1"
      points="3.18 5.19 3.08 5.51 2.74 5.51 3.01 5.71 2.91 6.03 3.18 5.84 3.45 6.03 3.36 5.71 3.62 5.51 3.29 5.51 3.18 5.19"
    />
    <polygon
      class="cls-1"
      points="5.08 5.19 4.98 5.51 4.64 5.51 4.91 5.71 4.8 6.03 5.08 5.84 5.35 6.03 5.25 5.71 5.51 5.51 5.19 5.51 5.08 5.19"
    />
    <polygon
      class="cls-1"
      points="6.98 5.19 6.88 5.51 6.53 5.51 6.81 5.71 6.7 6.03 6.98 5.84 7.25 6.03 7.15 5.71 7.41 5.51 7.09 5.51 6.98 5.19"
    />
    <polygon
      class="cls-1"
      points="6.14 6.32 6.03 6 5.93 6.32 5.58 6.32 5.86 6.52 5.75 6.84 6.03 6.65 6.3 6.84 6.2 6.52 6.46 6.32 6.14 6.32"
    />
    <polygon
      class="cls-1"
      points="4.24 6.32 4.13 6 4.03 6.32 3.69 6.32 3.96 6.52 3.85 6.84 4.13 6.65 4.4 6.84 4.31 6.52 4.57 6.32 4.24 6.32"
    />
    <polygon
      class="cls-1"
      points="2.34 6.32 2.23 6 2.13 6.32 1.79 6.32 2.06 6.52 1.96 6.84 2.23 6.65 2.5 6.84 2.41 6.52 2.67 6.32 2.34 6.32"
    />
    <path
      class="cls-1"
      d="M.06,6.84l.28-.19.27.19-.1-.32.26-.2H.44L.34,6l-.11.32H.09a.59.59,0,0,1,0,.13l.1.07Z"
    />
    <polygon
      class="cls-1"
      points="1.4 7.13 1.29 6.82 1.18 7.13 0.84 7.13 1.12 7.33 1.01 7.65 1.29 7.46 1.56 7.65 1.46 7.33 1.72 7.13 1.4 7.13"
    />
    <polygon
      class="cls-1"
      points="3.29 7.13 3.18 6.82 3.08 7.13 2.74 7.13 3.01 7.33 2.91 7.65 3.18 7.46 3.45 7.65 3.36 7.33 3.62 7.13 3.29 7.13"
    />
    <polygon
      class="cls-1"
      points="5.19 7.13 5.08 6.82 4.98 7.13 4.64 7.13 4.91 7.33 4.8 7.65 5.08 7.46 5.35 7.65 5.25 7.33 5.51 7.13 5.19 7.13"
    />
    <polygon
      class="cls-1"
      points="7.09 7.13 6.98 6.82 6.88 7.13 6.53 7.13 6.81 7.33 6.7 7.65 6.98 7.46 7.25 7.65 7.15 7.33 7.41 7.13 7.09 7.13"
    />
  </g>
</svg>
