<svg
  class="jp"
  xmlns="http://www.w3.org/2000/svg"
  version="1.1"
  viewBox="0 0 15.63 15.63"
>
  <style>
    .cls-1 {
      fill: #fff;
    }
    .cls-2 {
      fill: #d43b2a;
    }
    .cls-3 {
      fill: none;
      stroke: #dbdcdc;
      stroke-miterlimit: 10;
      stroke-width: 0.25px;
    }
  </style>
  <g>
    <path
      class="cls-1"
      d="M15.13,7.63a7.5,7.5,0,0,1-15,.61h0c0-.2,0-.41,0-.61A7.49,7.49,0,0,1,7.63.13H8A7.51,7.51,0,0,1,15.13,7.63Z"
    />
    <path class="cls-2" d="M10.63,7.63a3,3,0,1,1-3-3A3,3,0,0,1,10.63,7.63Z" />
    <path
      class="cls-3"
      d="M15.13,7.63a7.5,7.5,0,0,1-15,.61h0c0-.2,0-.41,0-.61A7.49,7.49,0,0,1,7.63.13H8A7.51,7.51,0,0,1,15.13,7.63Z"
    />
  </g>
</svg>
