<svg class="tw" xmlns="http://www.w3.org/2000/svg" version="1.1" viewBox="0 0 15.35 15.35">
  <style>
    .cls-1 {
      fill: #d43b2a;
    }
    .cls-2 {
      fill: #0f24af;
    }
    .cls-3 {
      fill: #fff;
    }
  </style>
  <g>
    <path
      class="cls-1"
      d="M15,7.5A7.5,7.5,0,0,1,0,8.12H0c0-.2,0-.4,0-.61A7.5,7.5,0,0,1,7.5,0h.34A7.49,7.49,0,0,1,15,7.5Z"
    />
    <path
      class="cls-2"
      d="M7.84,0V8.12H0C0,8,0,8,0,7.89v0H0c0-.12,0-.23,0-.35a2.81,2.81,0,0,1,0-.29A7.47,7.47,0,0,1,2.49,1.92l.07-.06.1-.09.1-.09,0,0A7.45,7.45,0,0,1,7.5,0h.34Z"
    />
    <polygon class="cls-3" points="5.06 3.1 4.34 3.1 4.68 1.85 5.06 3.1" />
    <polygon class="cls-3" points="5.06 6.21 4.34 6.21 4.68 7.46 5.06 6.21" />
    <polygon class="cls-3" points="4.23 3.13 3.61 3.49 3.28 2.23 4.23 3.13" />
    <polygon class="cls-3" points="5.79 5.82 5.17 6.18 6.09 7.09 5.79 5.82" />
    <polygon class="cls-3" points="3.53 3.57 3.17 4.19 2.26 3.27 3.53 3.57" />
    <polygon class="cls-3" points="6.22 5.12 5.87 5.74 7.12 6.07 6.22 5.12" />
    <polygon class="cls-3" points="3.14 4.3 3.14 5.01 1.89 4.67 3.14 4.3" />
    <polygon class="cls-3" points="6.25 4.3 6.25 5.01 7.5 4.67 6.25 4.3" />
    <polygon class="cls-3" points="3.17 5.12 3.53 5.74 2.28 6.07 3.17 5.12" />
    <polygon class="cls-3" points="5.87 3.57 6.22 4.19 7.13 3.27 5.87 3.57" />
    <polygon class="cls-3" points="3.61 5.82 4.23 6.18 3.31 7.09 3.61 5.82" />
    <polygon class="cls-3" points="5.17 3.13 5.79 3.49 6.11 2.23 5.17 3.13" />
    <path
      class="cls-3"
      d="M6.25,4.67A1.55,1.55,0,1,1,4.7,3.12,1.54,1.54,0,0,1,6.25,4.67Z"
    />
    <path
      class="cls-2"
      d="M4.7,6.27a1.5,1.5,0,0,1-.62-.13,1.56,1.56,0,0,1-.85-.85A1.57,1.57,0,0,1,3.23,4a1.57,1.57,0,0,1,.34-.51,1.75,1.75,0,0,1,.51-.34,1.68,1.68,0,0,1,.62-.13,1.69,1.69,0,0,1,.63.13,1.75,1.75,0,0,1,.51.34A1.75,1.75,0,0,1,6.18,4a1.69,1.69,0,0,1,.13.63,1.68,1.68,0,0,1-.13.62,1.75,1.75,0,0,1-.34.51,1.57,1.57,0,0,1-.51.34A1.51,1.51,0,0,1,4.7,6.27Zm0-3.09a1.39,1.39,0,0,0-.57.12,1.39,1.39,0,0,0-.48.32,1.38,1.38,0,0,0-.31.47,1.43,1.43,0,0,0-.12.58,1.39,1.39,0,0,0,.12.57,1.52,1.52,0,0,0,.31.48A1.52,1.52,0,0,0,4.13,6a1.39,1.39,0,0,0,.57.12A1.43,1.43,0,0,0,5.28,6a1.38,1.38,0,0,0,.47-.31,1.39,1.39,0,0,0,.32-.48,1.39,1.39,0,0,0,.12-.57,1.43,1.43,0,0,0-.12-.58,1.27,1.27,0,0,0-.32-.47,1.27,1.27,0,0,0-.47-.32A1.43,1.43,0,0,0,4.7,3.18Z"
    />
  </g>
</svg>
